<svg width="0" height="0" class="hidden">
  <symbol xmlns="http://www.w3.org/2000/svg" fill="none" viewBox="0 0 22 12" id="arrow-right">
    <path stroke="#070721" stroke-linecap="round" stroke-linejoin="round" d="M1 6.004 20.996 6m0 0L15.613.614M20.996 6l-5.383 5.385"></path>
  </symbol>
  <symbol xmlns="http://www.w3.org/2000/svg" fill="none" viewBox="0 0 18 13" id="burger">
    <path stroke="#070721" stroke-linecap="round" d="M.5.5h17m-17 12h17m-17-6h17"></path>
  </symbol>
  <symbol xmlns="http://www.w3.org/2000/svg" fill="none" viewBox="0 0 20 10" id="chevron-down-big">
    <path stroke="#070721" stroke-linecap="round" stroke-linejoin="round" d="m19 .5-9 9-9-9"></path>
  </symbol>
  <symbol xmlns="http://www.w3.org/2000/svg" fill="none" viewBox="0 0 14 8" id="chevron-down">
    <path stroke="#070721" stroke-linecap="round" stroke-linejoin="round" d="M13 1 7 7 1 1"></path>
  </symbol>
  <symbol xmlns="http://www.w3.org/2000/svg" fill="none" viewBox="0 0 10 20" id="chevron-left-big">
    <path stroke="#070721" stroke-linecap="round" stroke-linejoin="round" d="m9.5 19-9-9 9-9"></path>
  </symbol>
  <symbol xmlns="http://www.w3.org/2000/svg" fill="none" viewBox="0 0 8 14" id="chevron-left">
    <path stroke="#070721" stroke-linecap="round" stroke-linejoin="round" d="M7 13 1 7l6-6"></path>
  </symbol>
  <symbol xmlns="http://www.w3.org/2000/svg" fill="none" viewBox="0 0 10 20" id="chevron-right-big">
    <path stroke="#070721" stroke-linecap="round" stroke-linejoin="round" d="m.5 1 9 9-9 9"></path>
  </symbol>
  <symbol xmlns="http://www.w3.org/2000/svg" fill="none" viewBox="0 0 8 14" id="chevron-right">
    <path stroke="#070721" stroke-linecap="round" stroke-linejoin="round" d="m1 1 6 6-6 6"></path>
  </symbol>
  <symbol xmlns="http://www.w3.org/2000/svg" fill="none" viewBox="0 0 14 8" id="chevron-up-small">
    <path stroke="#070721" stroke-linecap="round" stroke-linejoin="round" d="m1 7 6-6 6 6"></path>
  </symbol>
  <symbol xmlns="http://www.w3.org/2000/svg" fill="none" viewBox="0 0 20 10" id="chevron-up">
    <path stroke="#070721" stroke-linecap="round" stroke-linejoin="round" d="m1 9.5 9-9 9 9"></path>
  </symbol>
  <symbol xmlns="http://www.w3.org/2000/svg" fill="none" viewBox="0 0 14 14" id="close-small">
    <path stroke="#070721" stroke-linecap="round" stroke-linejoin="round" d="m1 1 6 6m0 0-6 6m6-6 6 6M7 7l6-6"></path>
  </symbol>
  <symbol xmlns="http://www.w3.org/2000/svg" fill="none" viewBox="0 0 20 20" id="close">
    <path stroke="#070721" stroke-linecap="round" stroke-linejoin="round" d="m1 1 9 9m0 0-9 9m9-9 9 9m-9-9 9-9"></path>
  </symbol>
  <symbol xmlns="http://www.w3.org/2000/svg" fill="none" viewBox="0 0 20 20" id="delete">
    <path stroke="#070721" stroke-linecap="round" stroke-linejoin="round" d="M10 15.846v-8.77M.5 3.424h2.192m16.808 0h-2.192m-3.654 0H6.346m7.308 0V1.962c0-.808-.655-1.462-1.462-1.462H7.808C7 .5 6.346 1.154 6.346 1.962v1.461m7.308 0h3.654m-10.962 0H2.692m14.616 0v13.154a2.923 2.923 0 0 1-2.923 2.923h-8.77a2.923 2.923 0 0 1-2.923-2.923V3.423"></path>
  </symbol>
  <symbol xmlns="http://www.w3.org/2000/svg" fill="none" viewBox="0 0 12 22" id="down-right">
    <path stroke="#070721" stroke-linecap="round" stroke-linejoin="round" d="m5.995.996.003 20.008m0 0 5.387-5.387m-5.387 5.387L.612 15.617"></path>
  </symbol>
  <symbol xmlns="http://www.w3.org/2000/svg" fill="none" viewBox="0 0 20 19" id="eye-crossed">
    <path stroke="#070721" stroke-linecap="round" d="M13.214 16.65c-1.086.504-2.29.832-3.56.832-4.78 0-8.654-4.654-8.654-5.837 0-.67 1.245-2.457 3.194-3.878m13.075 5.749c.663-.797 1.039-1.503 1.039-1.871 0-1.183-3.875-5.838-8.654-5.838 2.103 0 3.808 1.691 3.808 3.778m-3.808 3.777c-2.103 0-3.808-1.691-3.808-3.777M19 5.807c-2.636-2.18-5.713-3.433-9-3.433-1.185 0-2.342.162-3.461.473M1 5.807c.245-.202.493-.396.744-.582M1 1l16.714 16.875"></path>
  </symbol>
  <symbol xmlns="http://www.w3.org/2000/svg" fill="none" viewBox="0 0 20 16" id="eye">
    <path stroke="#070721" stroke-linecap="round" d="M9.654 3.91C4.874 3.91 1 8.53 1 9.704 1 10.879 4.874 15.5 9.654 15.5c4.78 0 8.654-4.621 8.654-5.795 0-1.175-3.875-5.796-8.654-5.796Zm0 0c-2.103 0-3.808 1.678-3.808 3.75 0 2.07 1.705 3.75 3.808 3.75 2.103 0 3.808-1.68 3.808-3.75 0-2.072-1.705-3.75-3.808-3.75Zm9.346 0C16.364 1.742 13.287.5 10 .5S3.636 1.743 1 3.91"></path>
  </symbol>
  <symbol xmlns="http://www.w3.org/2000/svg" fill="none" viewBox="0 0 20 18" id="heart">
    <path stroke="#070721" stroke-linecap="round" stroke-linejoin="round" d="M18.098 1.903a4.782 4.782 0 0 0-6.767 0L10 3.235 8.67 1.903a4.782 4.782 0 0 0-6.768 0 4.795 4.795 0 0 0 0 6.775L10 17.464l8.098-8.786a4.795 4.795 0 0 0 0-6.775Z"></path>
  </symbol>
  <symbol xmlns="http://www.w3.org/2000/svg" fill="none" viewBox="0 0 20 20" id="home">
    <path fill="#070721" d="M.5 10.524H1 .5Zm0 7.52H0h.5ZM18.038 19.5V19v.5Zm-16.076 0v.5-.5ZM19.5 10.524H19h.5Zm0 7.52h.5-.5Zm-.773-9.494-.367.34.367-.34ZM12.15 1.44l-.367.34.367-.34Zm-4.3 0 .367.34-.367-.34ZM1.273 8.55l-.367-.34.367.34Zm5.804 3.67h.5-.5Zm0 6.552h-.5.5Zm5.115.728V19v.5Zm-4.384 0v.5-.5Zm5.115-7.28h.5-.5Zm0 6.552h-.5.5Zm-.73-7.28v.5-.5Zm-4.385 0v.5-.5ZM.5 10.523H0v7.52h1v-7.52H.5ZM18.038 19.5V19H1.962v1h16.076v-.5Zm1.462-8.976H19v7.52h1v-7.52h-.5Zm-.773-1.974.367-.34-6.577-7.11-.367.339-.367.34 6.577 7.11.367-.339ZM7.85 1.44l-.367-.34L.906 8.211l.367.34.367.339 6.577-7.112-.367-.34Zm4.3 0 .367-.34a3.43 3.43 0 0 0-5.034 0l.367.34.367.34a2.43 2.43 0 0 1 3.566 0l.367-.34Zm7.35 9.085h.5c0-.858-.324-1.683-.906-2.313l-.367.34-.367.339c.412.445.64 1.029.64 1.634h.5Zm-19 0H1c0-.605.228-1.189.64-1.634l-.367-.34-.367-.34A3.406 3.406 0 0 0 0 10.525h.5Zm0 7.52H0C0 19.126.88 20 1.962 20v-1A.959.959 0 0 1 1 18.044H.5ZM18.038 19.5v.5A1.959 1.959 0 0 0 20 18.044h-1a.959.959 0 0 1-.962.956v.5ZM7.077 12.22h-.5v6.552h1v-6.553h-.5Zm5.115 7.28V19H7.808v1h4.384v-.5Zm.731-7.28h-.5v6.552h1V12.22h-.5Zm-.73-.729v-.5H7.807v1h4.384v-.5Zm.73.729h.5a1.23 1.23 0 0 0-1.23-1.229v1c.129 0 .23.104.23.229h.5Zm-5.846 0h.5a.23.23 0 0 1 .23-.229v-1a1.23 1.23 0 0 0-1.23 1.228h.5Zm0 6.552h-.5c0 .68.553 1.228 1.23 1.228v-1a.23.23 0 0 1-.23-.228h-.5Zm5.115.728v.5a1.23 1.23 0 0 0 1.231-1.228h-1a.23.23 0 0 1-.23.228v.5Z"></path>
  </symbol>
  <symbol xmlns="http://www.w3.org/2000/svg" fill="none" viewBox="0 0 22 12" id="left-arrow">
    <path stroke="#070721" stroke-linecap="round" stroke-linejoin="round" d="M20.996 6 1 6.004m0 0 5.383 5.385M1 6.004 6.383.618"></path>
  </symbol>
  <symbol xmlns="http://www.w3.org/2000/svg" fill="none" viewBox="0 0 14 12" id="left-short">
    <path stroke="#070721" stroke-linecap="round" stroke-linejoin="round" d="M13 6.004H1m0 0 5.384 5.385M1 6.004 6.384.618"></path>
  </symbol>
  <symbol xmlns="http://www.w3.org/2000/svg" fill="none" viewBox="0 0 20 20" id="log-out">
    <path stroke="#070721" stroke-linecap="round" stroke-linejoin="round" d="M19.5 10H4.885m0 0 4.384-4.385M4.885 10l4.384 4.385M7.077.5H3.423A2.923 2.923 0 0 0 .5 3.423v13.154A2.923 2.923 0 0 0 3.423 19.5h3.654"></path>
  </symbol>
  <symbol xmlns="http://www.w3.org/2000/svg" fill="none" viewBox="0 0 21 20" id="log">
    <path stroke="#070721" stroke-linecap="round" stroke-linejoin="round" d="M7.077.5H3.423A2.923 2.923 0 0 0 .5 3.423v13.154A2.923 2.923 0 0 0 3.423 19.5h3.654M5.5 10h14.615m0 0-4.384 4.385M20.115 10l-4.384-4.385"></path>
  </symbol>
  <symbol xmlns="http://www.w3.org/2000/svg" fill="none" viewBox="0 0 14 12" id="right-short">
    <path stroke="#070721" stroke-linecap="round" stroke-linejoin="round" d="M1 6.004h12m0 0-5.384 5.385M13 6.004 7.616.618"></path>
  </symbol>
  <symbol xmlns="http://www.w3.org/2000/svg" fill="none" viewBox="0 0 20 20" id="search">
    <path stroke="#070721" stroke-linecap="round" d="m19 19-4.413-4.405m0 0A7.962 7.962 0 1 0 3.336 3.327a7.962 7.962 0 0 0 11.251 11.268Z"></path>
  </symbol>
  <symbol xmlns="http://www.w3.org/2000/svg" fill="none" viewBox="0 0 12 22" id="top-right">
<path stroke="#070721" stroke-linecap="round" stroke-linejoin="round" d="M5.998 21.004 5.994.996m0 0L.607 6.383M5.994.996l5.386 5.387"></path>
  </symbol>
  <symbol xmlns="http://www.w3.org/2000/svg" fill="none" viewBox="0 0 20 20" id="user">
    <path stroke="#070721" d="M14.384 4.885a4.385 4.385 0 1 1-8.769 0 4.385 4.385 0 0 1 8.77 0ZM10 19.5c4.343 0 6.845-1.12 8.006-1.841.543-.338.811-.96.756-1.603-.076-.879-.383-1.757-.695-2.453-.411-.914-1.361-1.41-2.364-1.41H4.296c-1.002 0-1.953.496-2.363 1.41-.313.696-.62 1.574-.695 2.453-.056.644.212 1.265.755 1.603C3.154 18.379 5.656 19.5 10 19.5Z"></path>
  </symbol>
  <symbol xmlns="http://www.w3.org/2000/svg" fill="none" viewBox="0 0 18 23" id="Vector-flag">
    <path stroke="#070721" stroke-linecap="round" stroke-linejoin="round" d="M8.996.5c2.033 0 3.864.233 5.177.463 1.168.205 2.09 1.002 2.388 2.118.47 1.764 1.011 4.734.931 8.91-.089 4.622-.845 7.784-1.48 9.652-.131.384-.413.586-.728.635-.325.051-.714-.06-1.023-.377-.795-.816-1.78-1.777-2.702-2.539-.46-.38-.916-.72-1.332-.966-.394-.235-.83-.434-1.23-.434-.395 0-.85.194-1.274.427-.448.245-.95.582-1.466.963-1.033.761-2.161 1.725-3.076 2.54-.343.306-.755.383-1.087.297-.324-.085-.6-.328-.694-.747C.97 19.54.5 16.44.5 12c0-4.364.511-7.273.952-8.97.282-1.084 1.175-1.856 2.314-2.057A30.457 30.457 0 0 1 8.996.5Z"></path>
  </symbol>
  <symbol xmlns="http://www.w3.org/2000/svg" fill="none" viewBox="0 0 22 26" id="Vector">
    <path stroke="#070721" stroke-linecap="round" stroke-linejoin="round" d="M11 16V1m0 0L6.958 4.6M11 1l4.042 3.6M7.16 8H3.115C2.168 8 1.4 8.768 1.4 9.714v13.572c0 .947.768 1.714 1.715 1.714h15.771c.947 0 1.714-.767 1.714-1.714V9.714C20.6 8.768 19.833 8 18.886 8H14.84"></path>
  </symbol>
</svg>