<svg width="0" height="0" class="hidden">
  <symbol xmlns="http://www.w3.org/2000/svg" fill="none" viewBox="0 0 22 12" id="arrow-right">
    <path stroke="#070721" stroke-linecap="round" stroke-linejoin="round" d="M1 6.004 20.996 6m0 0L15.613.614M20.996 6l-5.383 5.385"></path>
  </symbol>
  <symbol xmlns="http://www.w3.org/2000/svg" fill="none" viewBox="0 0 18 13" id="burger">
    <path stroke="#070721" stroke-linecap="round" d="M.5.5h17m-17 12h17m-17-6h17"></path>
  </symbol>
  <symbol xmlns="http://www.w3.org/2000/svg" fill="none" viewBox="0 0 20 10" id="chevron-down-big">
    <path stroke="#070721" stroke-linecap="round" stroke-linejoin="round" d="m19 .5-9 9-9-9"></path>
  </symbol>
  <symbol xmlns="http://www.w3.org/2000/svg" fill="none" viewBox="0 0 14 8" id="chevron-down">
    <path stroke="#070721" stroke-linecap="round" stroke-linejoin="round" d="M13 1 7 7 1 1"></path>
  </symbol>
  <symbol xmlns="http://www.w3.org/2000/svg" fill="none" viewBox="0 0 10 20" id="chevron-left-big">
    <path stroke="#070721" stroke-linecap="round" stroke-linejoin="round" d="m9.5 19-9-9 9-9"></path>
  </symbol>
  <symbol xmlns="http://www.w3.org/2000/svg" fill="none" viewBox="0 0 8 14" id="chevron-left">
    <path stroke="#070721" stroke-linecap="round" stroke-linejoin="round" d="M7 13 1 7l6-6"></path>
  </symbol>
  <symbol xmlns="http://www.w3.org/2000/svg" fill="none" viewBox="0 0 10 20" id="chevron-right-big">
    <path stroke="#070721" stroke-linecap="round" stroke-linejoin="round" d="m.5 1 9 9-9 9"></path>
  </symbol>
  <symbol xmlns="http://www.w3.org/2000/svg" fill="none" viewBox="0 0 8 14" id="chevron-right">
    <path stroke="#070721" stroke-linecap="round" stroke-linejoin="round" d="m1 1 6 6-6 6"></path>
  </symbol>
  <symbol xmlns="http://www.w3.org/2000/svg" fill="none" viewBox="0 0 14 8" id="chevron-up-small">
    <path stroke="#070721" stroke-linecap="round" stroke-linejoin="round" d="m1 7 6-6 6 6"></path>
  </symbol>
  <symbol xmlns="http://www.w3.org/2000/svg" fill="none" viewBox="0 0 20 10" id="chevron-up">
    <path stroke="#070721" stroke-linecap="round" stroke-linejoin="round" d="m1 9.5 9-9 9 9"></path>
  </symbol>
  <symbol xmlns="http://www.w3.org/2000/svg" fill="none" viewBox="0 0 14 14" id="close-small">
    <path stroke="#070721" stroke-linecap="round" stroke-linejoin="round" d="m1 1 6 6m0 0-6 6m6-6 6 6M7 7l6-6"></path>
  </symbol>
  <symbol xmlns="http://www.w3.org/2000/svg" fill="none" viewBox="0 0 20 20" id="close">
    <path stroke="#070721" stroke-linecap="round" stroke-linejoin="round" d="m1 1 9 9m0 0-9 9m9-9 9 9m-9-9 9-9"></path>
  </symbol>
  <symbol xmlns="http://www.w3.org/2000/svg" fill="none" viewBox="0 0 20 20" id="delete">
    <path stroke="#070721" stroke-linecap="round" stroke-linejoin="round" d="M10 15.846v-8.77M.5 3.424h2.192m16.808 0h-2.192m-3.654 0H6.346m7.308 0V1.962c0-.808-.655-1.462-1.462-1.462H7.808C7 .5 6.346 1.154 6.346 1.962v1.461m7.308 0h3.654m-10.962 0H2.692m14.616 0v13.154a2.923 2.923 0 0 1-2.923 2.923h-8.77a2.923 2.923 0 0 1-2.923-2.923V3.423"></path>
  </symbol>
  <symbol xmlns="http://www.w3.org/2000/svg" fill="none" viewBox="0 0 12 22" id="down-right">
    <path stroke="#070721" stroke-linecap="round" stroke-linejoin="round" d="m5.995.996.003 20.008m0 0 5.387-5.387m-5.387 5.387L.612 15.617"></path>
  </symbol>
  <symbol xmlns="http://www.w3.org/2000/svg" fill="none" viewBox="0 0 20 19" id="eye-crossed">
    <path stroke="#070721" stroke-linecap="round" d="M13.214 16.65c-1.086.504-2.29.832-3.56.832-4.78 0-8.654-4.654-8.654-5.837 0-.67 1.245-2.457 3.194-3.878m13.075 5.749c.663-.797 1.039-1.503 1.039-1.871 0-1.183-3.875-5.838-8.654-5.838 2.103 0 3.808 1.691 3.808 3.778m-3.808 3.777c-2.103 0-3.808-1.691-3.808-3.777M19 5.807c-2.636-2.18-5.713-3.433-9-3.433-1.185 0-2.342.162-3.461.473M1 5.807c.245-.202.493-.396.744-.582M1 1l16.714 16.875"></path>
  </symbol>
  <symbol xmlns="http://www.w3.org/2000/svg" fill="none" viewBox="0 0 20 16" id="eye">
    <path stroke="#070721" stroke-linecap="round" d="M9.654 3.91C4.874 3.91 1 8.53 1 9.704 1 10.879 4.874 15.5 9.654 15.5c4.78 0 8.654-4.621 8.654-5.795 0-1.175-3.875-5.796-8.654-5.796Zm0 0c-2.103 0-3.808 1.678-3.808 3.75 0 2.07 1.705 3.75 3.808 3.75 2.103 0 3.808-1.68 3.808-3.75 0-2.072-1.705-3.75-3.808-3.75Zm9.346 0C16.364 1.742 13.287.5 10 .5S3.636 1.743 1 3.91"></path>
  </symbol>
  <symbol xmlns="http://www.w3.org/2000/svg" fill="none" viewBox="0 0 20 18" id="heart">
    <path stroke="#070721" stroke-linecap="round" stroke-linejoin="round" d="M18.098 1.903a4.782 4.782 0 0 0-6.767 0L10 3.235 8.67 1.903a4.782 4.782 0 0 0-6.768 0 4.795 4.795 0 0 0 0 6.775L10 17.464l8.098-8.786a4.795 4.795 0 0 0 0-6.775Z"></path>
  </symbol>
  <symbol xmlns="http://www.w3.org/2000/svg" fill="none" viewBox="0 0 20 20" id="home">
    <path fill="#070721" d="M.5 10.524H1 .5Zm0 7.52H0h.5ZM18.038 19.5V19v.5Zm-16.076 0v.5-.5ZM19.5 10.524H19h.5Zm0 7.52h.5-.5Zm-.773-9.494-.367.34.367-.34ZM12.15 1.44l-.367.34.367-.34Zm-4.3 0 .367.34-.367-.34ZM1.273 8.55l-.367-.34.367.34Zm5.804 3.67h.5-.5Zm0 6.552h-.5.5Zm5.115.728V19v.5Zm-4.384 0v.5-.5Zm5.115-7.28h.5-.5Zm0 6.552h-.5.5Zm-.73-7.28v.5-.5Zm-4.385 0v.5-.5ZM.5 10.523H0v7.52h1v-7.52H.5ZM18.038 19.5V19H1.962v1h16.076v-.5Zm1.462-8.976H19v7.52h1v-7.52h-.5Zm-.773-1.974.367-.34-6.577-7.11-.367.339-.367.34 6.577 7.11.367-.339ZM7.85 1.44l-.367-.34L.906 8.211l.367.34.367.339 6.577-7.112-.367-.34Zm4.3 0 .367-.34a3.43 3.43 0 0 0-5.034 0l.367.34.367.34a2.43 2.43 0 0 1 3.566 0l.367-.34Zm7.35 9.085h.5c0-.858-.324-1.683-.906-2.313l-.367.34-.367.339c.412.445.64 1.029.64 1.634h.5Zm-19 0H1c0-.605.228-1.189.64-1.634l-.367-.34-.367-.34A3.406 3.406 0 0 0 0 10.525h.5Zm0 7.52H0C0 19.126.88 20 1.962 20v-1A.959.959 0 0 1 1 18.044H.5ZM18.038 19.5v.5A1.959 1.959 0 0 0 20 18.044h-1a.959.959 0 0 1-.962.956v.5ZM7.077 12.22h-.5v6.552h1v-6.553h-.5Zm5.115 7.28V19H7.808v1h4.384v-.5Zm.731-7.28h-.5v6.552h1V12.22h-.5Zm-.73-.729v-.5H7.807v1h4.384v-.5Zm.73.729h.5a1.23 1.23 0 0 0-1.23-1.229v1c.129 0 .23.104.23.229h.5Zm-5.846 0h.5a.23.23 0 0 1 .23-.229v-1a1.23 1.23 0 0 0-1.23 1.228h.5Zm0 6.552h-.5c0 .68.553 1.228 1.23 1.228v-1a.23.23 0 0 1-.23-.228h-.5Zm5.115.728v.5a1.23 1.23 0 0 0 1.231-1.228h-1a.23.23 0 0 1-.23.228v.5Z"></path>
  </symbol>
  <symbol xmlns="http://www.w3.org/2000/svg" fill="none" viewBox="0 0 22 12" id="left-arrow">
    <path stroke="#070721" stroke-linecap="round" stroke-linejoin="round" d="M20.996 6 1 6.004m0 0 5.383 5.385M1 6.004 6.383.618"></path>
  </symbol>
  <symbol xmlns="http://www.w3.org/2000/svg" fill="none" viewBox="0 0 14 12" id="left-short">
    <path stroke="#070721" stroke-linecap="round" stroke-linejoin="round" d="M13 6.004H1m0 0 5.384 5.385M1 6.004 6.384.618"></path>
  </symbol>
  <symbol xmlns="http://www.w3.org/2000/svg" fill="none" viewBox="0 0 20 20" id="log-out">
    <path stroke="#070721" stroke-linecap="round" stroke-linejoin="round" d="M19.5 10H4.885m0 0 4.384-4.385M4.885 10l4.384 4.385M7.077.5H3.423A2.923 2.923 0 0 0 .5 3.423v13.154A2.923 2.923 0 0 0 3.423 19.5h3.654"></path>
  </symbol>
  <symbol xmlns="http://www.w3.org/2000/svg" fill="none" viewBox="0 0 21 20" id="log">
    <path stroke="#070721" stroke-linecap="round" stroke-linejoin="round" d="M7.077.5H3.423A2.923 2.923 0 0 0 .5 3.423v13.154A2.923 2.923 0 0 0 3.423 19.5h3.654M5.5 10h14.615m0 0-4.384 4.385M20.115 10l-4.384-4.385"></path>
  </symbol>
  <symbol xmlns="http://www.w3.org/2000/svg" fill="none" viewBox="0 0 14 12" id="right-short">
    <path stroke="#070721" stroke-linecap="round" stroke-linejoin="round" d="M1 6.004h12m0 0-5.384 5.385M13 6.004 7.616.618"></path>
  </symbol>
  <symbol xmlns="http://www.w3.org/2000/svg" fill="none" viewBox="0 0 20 20" id="search">
    <path stroke="#070721" stroke-linecap="round" d="m19 19-4.413-4.405m0 0A7.962 7.962 0 1 0 3.336 3.327a7.962 7.962 0 0 0 11.251 11.268Z"></path>
  </symbol>
  <symbol xmlns="http://www.w3.org/2000/svg" fill="none" viewBox="0 0 12 22" id="top-right">
<path stroke="#070721" stroke-linecap="round" stroke-linejoin="round" d="M5.998 21.004 5.994.996m0 0L.607 6.383M5.994.996l5.386 5.387"></path>
  </symbol>
  <symbol xmlns="http://www.w3.org/2000/svg" fill="none" viewBox="0 0 20 20" id="user">
    <path stroke="#070721" d="M14.384 4.885a4.385 4.385 0 1 1-8.769 0 4.385 4.385 0 0 1 8.77 0ZM10 19.5c4.343 0 6.845-1.12 8.006-1.841.543-.338.811-.96.756-1.603-.076-.879-.383-1.757-.695-2.453-.411-.914-1.361-1.41-2.364-1.41H4.296c-1.002 0-1.953.496-2.363 1.41-.313.696-.62 1.574-.695 2.453-.056.644.212 1.265.755 1.603C3.154 18.379 5.656 19.5 10 19.5Z"></path>
  </symbol>
  <symbol xmlns="http://www.w3.org/2000/svg" fill="none" viewBox="0 0 18 23" id="Vector-flag">
    <path stroke="#070721" stroke-linecap="round" stroke-linejoin="round" d="M8.996.5c2.033 0 3.864.233 5.177.463 1.168.205 2.09 1.002 2.388 2.118.47 1.764 1.011 4.734.931 8.91-.089 4.622-.845 7.784-1.48 9.652-.131.384-.413.586-.728.635-.325.051-.714-.06-1.023-.377-.795-.816-1.78-1.777-2.702-2.539-.46-.38-.916-.72-1.332-.966-.394-.235-.83-.434-1.23-.434-.395 0-.85.194-1.274.427-.448.245-.95.582-1.466.963-1.033.761-2.161 1.725-3.076 2.54-.343.306-.755.383-1.087.297-.324-.085-.6-.328-.694-.747C.97 19.54.5 16.44.5 12c0-4.364.511-7.273.952-8.97.282-1.084 1.175-1.856 2.314-2.057A30.457 30.457 0 0 1 8.996.5Z"></path>
  </symbol>
  <symbol xmlns="http://www.w3.org/2000/svg" fill="none" viewBox="0 0 22 26" id="Vector">
    <path stroke="#070721" stroke-linecap="round" stroke-linejoin="round" d="M11 16V1m0 0L6.958 4.6M11 1l4.042 3.6M7.16 8H3.115C2.168 8 1.4 8.768 1.4 9.714v13.572c0 .947.768 1.714 1.715 1.714h15.771c.947 0 1.714-.767 1.714-1.714V9.714C20.6 8.768 19.833 8 18.886 8H14.84"></path>
  </symbol>
  <symbol xmlns="http://www.w3.org/2000/svg" fill="none" viewBox="0 0 98 82" id="photo">
    <path stroke="#070721" d="M67.37 47.212c0 8.576-8.27 15.528-18.473 15.528s-18.474-6.952-18.474-15.529c0-8.576 8.27-15.528 18.474-15.528 10.203 0 18.474 6.952 18.474 15.529Z"></path>
    <path stroke="#070721" d="M.864 68.625V30.776c0-6.36 6.134-11.516 13.701-11.516 5.19 0 9.934-2.465 12.255-6.367l3.105-5.22c2.57-4.32 7.822-7.048 13.567-7.048h10.81c5.745 0 10.997 2.729 13.566 7.048l3.105 5.22c2.321 3.902 7.065 6.367 12.255 6.367 7.567 0 13.7 5.156 13.7 11.516v37.849c0 7.042-6.79 12.75-15.167 12.75H16.032c-8.377 0-15.168-5.708-15.168-12.75Z"></path>
  </symbol>
  <symbol xmlns="http://www.w3.org/2000/svg" fill="none" viewBox="0 0 149 36" id="logo">
    <path fill="#649179" d="M137.893 7.161c.625-.069 1.312-.063 1.941-.016 2.452.183 4.231 1.268 5.803 3.104-.047-.923-.1-1.833-.047-2.757 1.054-.07 2.12-.036 3.177-.034l-.002 13.035c.005 2.614.235 5.427-.217 8-.26 1.485-.781 2.945-1.704 4.151-1.255 1.642-2.839 2.318-4.841 2.576.723-.863 1.416-1.737 1.993-2.704 1.504-3.162 1.528-6.24 1.572-9.656-1.318 1.564-2.714 2.615-4.764 2.996a9.285 9.285 0 0 1-6.941-1.476c-1.972-1.366-3.293-3.642-3.702-5.985-.451-2.581.066-5.372 1.584-7.526s3.598-3.26 6.148-3.708Zm2.857 15.555a6.228 6.228 0 1 0-2.521-12.197 6.228 6.228 0 0 0 2.521 12.197ZM89.388 7.113c5.225-.784 10.096 2.821 10.873 8.048.776 5.228-2.838 10.093-8.066 10.861-5.217.767-10.07-2.837-10.844-8.053a9.559 9.559 0 0 1 8.037-10.856Zm2.488 15.642a6.238 6.238 0 1 0-2.217-12.278 6.238 6.238 0 0 0 2.217 12.278ZM58.637 7.153c.743-.034 1.516-.071 2.252.054 2.093.357 3.186 1.602 4.34 3.246.324-.53.7-1.037 1.134-1.482 1.193-1.22 2.84-1.836 4.535-1.845 1.821-.01 3.644.453 4.959 1.78a6.37 6.37 0 0 1 1.636 2.992c.464 1.925.265 4.124.263 6.102l.006 7.298-3.307-.008-.006-7.037c.001-1.604.148-3.38-.18-4.954-.13-.63-.38-1.207-.808-1.694-.653-.745-1.743-1.242-2.732-1.27-1.197-.036-2.45.28-3.317 1.146-.59.588-.965 1.357-1.168 2.16-.493 1.952-.242 5.778-.235 7.936l.024 3.716-3.341.02.022-7.104c.007-1.596.185-3.415-.174-4.967-.163-.706-.496-1.378-1.01-1.894-.742-.744-1.746-1.015-2.775-1.007-1.104.01-2.197.344-2.976 1.155-.632.657-1.015 1.544-1.204 2.428-.32 1.494-.176 3.165-.175 4.688l.009 6.693-3.368-.014c.163-2.003.013-4.697.013-6.791.001-3.657.107-7.357-.024-11.01 1.127.001 2.27.043 3.392-.057l.004 2.468c1.203-1.503 2.322-2.298 4.21-2.748ZM25.93 7.165c.37-.044.76-.035 1.133-.039 2.034-.02 4.147.498 5.628 1.966a5.613 5.613 0 0 1 1.481 2.619c.48 1.873.26 4.092.263 6.016l.007 7.576-3.309-.01.014-2.168c-1 1.22-2.163 2.126-3.695 2.563-1.882.538-4.343.385-6.054-.619-1.387-.814-2.07-1.944-2.493-3.456-.114-1.263.005-2.465.717-3.553 1.523-2.33 4.609-2.674 7.113-3.105 1.475-.254 2.951-.491 4.412-.822-.028-.801-.145-1.582-.565-2.28-.492-.816-1.3-1.347-2.216-1.57-1.222-.296-2.77-.181-3.843.488-1.01.629-1.478 1.588-1.752 2.702-1.137-.056-2.265-.031-3.402-.006.33-1.267.653-2.484 1.426-3.566 1.267-1.77 3.065-2.388 5.134-2.736Zm-2.716 15.25c1.257.754 2.833.865 4.236.504 1.254-.323 2.493-1.062 3.14-2.215.646-1.146.567-2.427.555-3.692l-.105-.082c-1.091.092-2.163.316-3.242.497-1.601.269-3.831.338-4.988 1.635-.447.502-.588 1.075-.532 1.736.061.712.416 1.158.936 1.618ZM0 .347C1.102.4 2.2.343 3.301.381c-.085 3.228.15 6.486-.054 9.706.257-.324.503-.658.776-.97C5.105 7.88 6.727 7.206 8.35 7.135c1.872-.083 3.722.343 5.13 1.637a6.564 6.564 0 0 1 1.905 3.196c.418 1.584.292 3.36.292 4.987-.002 2.77-.113 5.585.022 8.352l-3.265-.014c-.073-2.824-.022-5.663-.03-8.49.028-1.774.16-3.88-1.166-5.255-.82-.85-1.938-1.21-3.099-1.227-1.288-.018-2.53.367-3.448 1.3a4.475 4.475 0 0 0-1.13 2.02c-.422 1.615-.256 3.526-.257 5.192-.005 2.153.005 4.307.031 6.46L.04 25.3C0 16.993.207 8.65 0 .347ZM111.606 7.157c.314-.014.628-.024.942-.028 1.814-.018 3.633.477 4.945 1.783.855.85 1.385 1.947 1.662 3.11.466 1.96.292 4.088.29 6.09l.002 7.194-3.368-.004c.033-1.621.001-3.25.011-4.874.012-2.06.272-5.24-.272-7.153-.301-1.054-.922-2.023-1.917-2.54-1.227-.637-2.872-.478-4.15-.07-.516.266-.966.542-1.386.956-.671.662-.971 1.442-1.167 2.343-.342 1.576-.216 3.292-.215 4.897l.012 6.451c-1.11-.02-2.221-.006-3.331-.006.092-5.93.012-11.878.016-17.812l3.31-.004c.006.848-.006 1.697-.008 2.545 1.202-1.754 2.601-2.43 4.624-2.878ZM46.25 7.153c.662-.03 1.327-.02 1.99-.022.022 1.206.005 2.415.003 3.621-.25-.01-.5-.017-.751-.024-1.507-.037-3.139.159-4.262 1.279-.595.592-.956 1.367-1.148 2.177-.365 1.534-.246 3.233-.247 4.8l.02 6.319c-.655.002-2.768.24-3.313-.13l-.028-.334c-.125-5.765-.029-11.562.007-17.33l3.377-.019c-.094.945-.046 1.906-.026 2.853 1.272-1.886 2.083-2.63 4.379-3.19ZM123.316 7.5c1.111.007 2.222.007 3.333 0v17.806a98.917 98.917 0 0 0-3.349.019c.074-5.94.017-11.886.016-17.826ZM124.295.342c.409-.023.86-.072 1.262.024.54.129 1.048.522 1.308 1.011.256.489.294 1.062.105 1.58-.255.684-.749 1.035-1.386 1.33-.429.026-.857.048-1.273-.082-.542-.17-1.027-.56-1.277-1.073a1.863 1.863 0 0 1-.092-1.44c.239-.679.735-1.041 1.353-1.35Z"></path>
  </symbol>
  <symbol xmlns="http://www.w3.org/2000/svg" fill="none" viewBox="0 0 16 16" id="pencil">
    <path stroke-linecap="round" stroke-linejoin="round" d="M4.712 15.125H.875v-3.844l7.947-7.962m-4.11 11.806h10.413m-10.413 0 7.947-7.963M8.822 3.32l1.644-1.648a2.71 2.71 0 0 1 3.837 0 2.722 2.722 0 0 1 0 3.844l-1.644 1.647M8.822 3.32l3.837 3.843"></path>
  </symbol>
</svg>