<svg width="32" height="32" viewBox="0 0 32 32" fill="none" xmlns="http://www.w3.org/2000/svg">
<rect width="32" height="32" fill="#D1E0D8"/>
<path d="M15.2125 5.04059C15.7047 4.98617 16.2459 4.99115 16.741 5.02793C18.6724 5.17163 20.0728 6.0262 21.311 7.47238C21.2737 6.74564 21.2321 6.02918 21.2737 5.3014C22.1039 5.24638 22.9437 5.27244 23.7761 5.27467L23.7746 15.5399C23.7783 17.5978 23.9593 19.8135 23.6034 21.8394C23.3986 23.009 22.9884 24.1586 22.2617 25.1086C21.273 26.4019 20.0259 26.9342 18.449 27.1367C19.0186 26.4577 19.5643 25.769 20.0192 25.0073C21.203 22.5176 21.2224 20.0942 21.2566 17.4034C20.2187 18.6349 19.1198 19.4628 17.5049 19.7629C15.6012 20.1143 13.6356 19.6966 12.0393 18.6007C10.4862 17.5248 9.44614 15.7327 9.12376 13.887C8.76861 11.8545 9.17587 9.65676 10.3708 7.96086C11.5666 6.2646 13.2045 5.39365 15.2125 5.04059ZM17.4625 17.2903C20.122 16.7408 21.8292 14.1335 21.2685 11.4755C20.7087 8.81797 18.0946 7.12178 15.4389 7.69261C12.7988 8.26024 11.1139 10.856 11.6708 13.4991C12.2284 16.1415 14.8172 17.8368 17.4625 17.2903Z" fill="#649179"/>
</svg>
