<svg xmlns="http://www.w3.org/2000/svg" width="16" height="16" viewBox="0 0 100 100"><rect width="100" height="100" rx="20" fill="#1e00ff"></rect><path fill="#fff" d="M11.72 49.88L11.72 49.88Q14.78 51.42 14.78 56.08L14.78 56.08L14.78 62.08Q14.78 63.83 15.53 64.55Q16.27 65.28 17.58 65.42L17.58 65.42Q17.68 65.78 17.68 66.10Q17.68 66.42 17.68 66.72L17.68 66.72Q17.68 68.22 16.85 68.92Q16.02 69.63 14.58 69.63L14.58 69.63Q12.13 69.63 10.57 68Q9.03 66.38 9.03 63.08L9.03 63.08L9.03 57.42Q9.03 55.02 8.15 53.75Q7.28 52.48 5.47 52.08L5.47 52.08Q5.33 51.63 5.22 51.02Q5.13 50.42 5.13 49.88L5.13 49.88Q5.13 49.27 5.22 48.67Q5.33 48.08 5.47 47.63L5.47 47.63Q7.28 47.22 8.15 45.95Q9.03 44.67 9.03 42.27L9.03 42.27L9.03 36.88Q9.03 33.58 10.63 31.97Q12.22 30.38 14.68 30.38L14.68 30.38Q16.13 30.38 16.90 31.05Q17.68 31.72 17.68 33.33L17.68 33.33Q17.68 33.63 17.68 33.92Q17.68 34.22 17.58 34.58L17.58 34.58Q16.27 34.72 15.53 35.45Q14.78 36.17 14.78 37.92L14.78 37.92L14.78 43.67Q14.78 48.38 11.72 49.88ZM31.83 58.83L31.83 58.83Q34.73 58.83 36.08 57.70Q37.42 56.58 37.42 54.88L37.42 54.88Q37.42 53.33 36.38 52.40Q35.33 51.48 33.17 50.83L33.17 50.83L29.98 49.83Q28.08 49.23 26.52 48.48Q24.98 47.73 23.88 46.70Q22.77 45.67 22.18 44.30Q21.57 42.92 21.57 41.02L21.57 41.02Q21.57 36.97 24.63 34.60Q27.68 32.22 32.98 32.22L32.98 32.22Q35.08 32.22 36.85 32.55Q38.63 32.88 39.92 33.45Q41.23 34.02 41.95 34.88Q42.67 35.72 42.67 36.77L42.67 36.77Q42.67 37.77 42.20 38.50Q41.73 39.22 41.03 39.67L41.03 39.67Q39.83 38.83 37.85 38.20Q35.88 37.58 33.52 37.58L33.52 37.58Q30.93 37.58 29.58 38.50Q28.23 39.42 28.23 41.02L28.23 41.02Q28.23 42.33 29.15 43.02Q30.08 43.72 32.08 44.38L32.08 44.38L34.92 45.27Q39.28 46.58 41.67 48.83Q44.08 51.08 44.08 54.92L44.08 54.92Q44.08 56.98 43.28 58.67Q42.48 60.38 40.95 61.60Q39.42 62.83 37.15 63.50Q34.88 64.17 31.98 64.17L31.98 64.17Q29.68 64.17 27.75 63.77Q25.82 63.38 24.43 62.70Q23.02 62.02 22.25 61.10Q21.48 60.17 21.48 59.08L21.48 59.08Q21.48 57.92 22.15 57.10Q22.82 56.27 23.73 55.88L23.73 55.88Q24.98 56.98 27.02 57.90Q29.08 58.83 31.83 58.83ZM46.93 60.27L46.93 60.27Q46.93 58.63 47.95 57.50Q48.98 56.38 50.78 56.38L50.78 56.38Q52.53 56.38 53.55 57.50Q54.58 58.63 54.58 60.27L54.58 60.27Q54.58 61.88 53.55 63Q52.53 64.13 50.78 64.13L50.78 64.13Q48.98 64.13 47.95 63Q46.93 61.88 46.93 60.27ZM62.83 63.48L62.83 63.48Q61.23 63.48 60.30 62.52Q59.38 61.58 59.38 59.98L59.38 59.98L59.38 33.02Q59.78 32.92 60.65 32.77Q61.53 32.63 62.38 32.63L62.38 32.63Q64.18 32.63 65.03 33.27Q65.88 33.92 65.88 35.67L65.88 35.67L65.88 58.13L78.73 58.13Q78.98 58.52 79.23 59.20Q79.48 59.88 79.48 60.67L79.48 60.67Q79.48 62.02 78.85 62.75Q78.23 63.48 77.13 63.48L77.13 63.48L62.83 63.48ZM88.28 49.88L88.28 49.88Q85.22 48.38 85.22 43.67L85.22 43.67L85.22 37.92Q85.22 36.17 84.47 35.45Q83.72 34.72 82.42 34.58L82.42 34.58Q82.33 34.22 82.33 33.92Q82.33 33.63 82.33 33.33L82.33 33.33Q82.33 31.72 83.10 31.05Q83.88 30.38 85.33 30.38L85.33 30.38Q87.78 30.38 89.38 31.97Q90.97 33.58 90.97 36.88L90.97 36.88L90.97 42.27Q90.97 44.67 91.85 45.95Q92.72 47.22 94.53 47.63L94.53 47.63Q94.67 48.08 94.78 48.67Q94.88 49.27 94.88 49.88L94.88 49.88Q94.88 50.42 94.78 51.02Q94.67 51.63 94.53 52.08L94.53 52.08Q92.72 52.48 91.85 53.75Q90.97 55.02 90.97 57.42L90.97 57.42L90.97 63.08Q90.97 66.38 89.42 68Q87.88 69.63 85.42 69.63L85.42 69.63Q83.97 69.63 83.15 68.92Q82.33 68.22 82.33 66.72L82.33 66.72Q82.33 66.42 82.33 66.10Q82.33 65.78 82.42 65.42L82.42 65.42Q83.72 65.28 84.47 64.55Q85.22 63.83 85.22 62.08L85.22 62.08L85.22 56.08Q85.22 51.42 88.28 49.88Z"></path></svg>